PathFileType	4	(X/Y/Z)	C:\Git\research_data\Projects\torsion_deformities_healthy_kinematics\simulations\P01\pre\dynamic04_l\marker_experimental.trc
DataRate	CameraRate	NumFrames	NumMarkers	Units	OrigDataRate	OrigDataStartFrame	OrigNumFrames
200	200	4	34	mm	200	608	694
Frame#	Time	C7			T10			CLAV			STRN			RBAK			LASI			RASI			SACR			LT1			LT2			LT3			LS1			LS2			LS3			LHEE			LTOE			RT1			RT2			RT3			RS1			RS2			RS3			RHEE			RTOE			LKNE			LANK			RKNE			RANK			LAJC			LKJC			RAJC			RKJC			RHJC			LHJC		
		X1	Y1	Z1	X2	Y2	Z2	X3	Y3	Z3	X4	Y4	Z4	X5	Y5	Z5	X6	Y6	Z6	X7	Y7	Z7	X8	Y8	Z8	X9	Y9	Z9	X10	Y10	Z10	X11	Y11	Z11	X12	Y12	Z12	X13	Y13	Z13	X14	Y14	Z14	X15	Y15	Z15	X16	Y16	Z16	X17	Y17	Z17	X18	Y18	Z18	X19	Y19	Z19	X20	Y20	Z20	X21	Y21	Z21	X22	Y22	Z22	X23	Y23	Z23	X24	Y24	Z24	X25	Y25	Z25	X26	Y26	Z26	X27	Y27	Z27	X28	Y28	Z28	X29	Y29	Z29	X30	Y30	Z30	X31	Y31	Z31	X32	Y32	Z32	X33	Y33	Z33	X34	Y34	Z34	

608	3.035000	1857.911743	1024.080811	-346.257080	1853.891113	848.698669	-356.153259	1979.000610	1003.415161	-344.755005	2045.962646	882.908081	-348.639313	1840.596313	959.505798	-259.150909	1990.957642	703.604736	-454.426971	2000.671021	695.105957	-251.337494	1843.444214	739.965515	-350.226959	2000.346680	530.081421	-520.415161	1968.027588	437.773987	-524.094360	2108.658203	469.406097	-511.317291	1997.432251	278.801849	-515.212524	1881.168457	236.894211	-509.025635	2015.750244	183.900055	-499.220337	1871.788940	101.115891	-436.040710	2004.095947	49.868305	-449.774750	1930.538818	516.681885	-213.522659	1860.431519	453.393463	-228.316910	2001.036377	419.927338	-230.885834	1911.071167	271.811127	-238.069717	1811.382446	210.892990	-199.207794	1938.616333	181.843063	-258.461121	1797.004395	47.127277	-272.423798	1935.060913	41.466572	-312.271698	2039.770996	378.694550	-513.409363	1911.533081	78.050919	-467.869568	1916.853760	349.219177	-249.965363	1848.177124	42.370422	-252.088303	1919.596924	77.253845	-434.956116	2055.547363	369.633453	-465.246429	1841.002319	49.319813	-287.585022	1918.885376	349.992218	-303.749329	1934.733954	638.984788	-277.882302	1927.626240	645.203725	-426.491963	
609	3.040000	1864.616577	1023.573608	-346.045349	1860.687622	848.455383	-356.609650	1985.738647	1003.271423	-345.222534	2052.825195	882.654053	-349.189941	1848.000244	958.837891	-258.678528	1998.017456	703.206299	-454.606323	2006.026245	694.033325	-251.740128	1849.679932	739.819763	-351.936493	2008.724365	530.278076	-520.925049	1976.815552	437.867737	-524.258850	2117.265869	470.051544	-510.648651	2009.227661	278.155731	-515.556824	1894.570679	231.926575	-510.088806	2030.986572	183.870834	-500.347443	1890.280151	95.083015	-438.602325	2024.446533	49.357983	-452.100952	1934.193115	516.279602	-214.228729	1863.668701	453.687683	-229.211624	2003.917725	418.838623	-231.272202	1912.465942	271.740326	-238.375687	1811.916260	211.527634	-200.024033	1939.405029	181.494858	-258.426483	1797.150391	47.543072	-272.869263	1935.195190	41.421959	-312.279175	2048.757324	379.113831	-512.674255	1930.655151	73.964767	-470.242615	1919.273682	348.905640	-250.594574	1847.767822	42.801197	-252.384262	1938.653809	73.172089	-437.313141	2064.219238	370.425598	-464.340912	1840.882080	49.742691	-287.939728	1921.514648	349.619110	-304.371063	1940.102090	638.322409	-278.955010	1934.240944	645.035552	-427.420467	
610	3.045000	1871.355713	1022.970886	-345.841400	1867.507812	848.117981	-357.086853	1992.525269	1002.999573	-345.698334	2059.705811	882.241943	-349.747742	1855.452393	958.073120	-258.204346	2005.039307	702.564758	-454.894012	2011.301880	692.796326	-252.073853	1855.911377	739.540039	-353.709534	2016.994751	530.239136	-521.317322	1985.454590	437.733826	-524.269226	2125.698242	470.411560	-509.801849	2021.028442	277.519287	-515.864685	1908.150513	226.957489	-511.265533	2046.234253	183.995377	-501.437073	1909.029053	89.240952	-441.365936	2044.833618	49.100544	-454.413757	1937.917847	515.836609	-214.977371	1866.995850	453.915222	-230.161514	2006.880859	417.734406	-231.704453	1913.978027	271.650116	-238.741440	1812.613647	212.171783	-200.836288	1940.248413	181.109421	-258.498322	1797.316162	47.985069	-273.372253	1935.320068	41.376369	-312.304749	2057.525635	379.286133	-511.737274	1949.971802	70.127266	-472.731506	1921.797363	348.560577	-251.281250	1847.421021	43.244892	-252.756805	1957.876343	69.327347	-439.779480	2072.648682	370.982483	-463.229492	1840.793091	50.187557	-288.360992	1924.249878	349.216248	-305.049225	1945.366910	637.462188	-279.983352	1940.783537	644.611385	-428.420822	
611	3.050000	1878.129028	1022.275818	-345.649353	1874.350464	847.688660	-357.585144	1999.359985	1002.601196	-346.186249	2066.602783	881.674255	-350.317383	1862.951172	957.214539	-257.733276	2012.029175	701.697327	-455.288757	2016.509155	691.408875	-252.344833	1862.144043	739.133240	-355.534882	2025.150513	529.968506	-521.585571	1993.942261	437.371490	-524.149353	2133.946045	470.493073	-508.748840	2032.831909	276.906158	-516.139282	1921.912964	222.019363	-512.575989	2061.476074	184.289825	-502.473572	1928.009399	83.632889	-444.318024	2065.233398	49.122585	-456.684631	1941.704590	515.357605	-215.765564	1870.401978	454.081573	-231.170807	2009.918335	416.619171	-232.167877	1915.609131	271.543457	-239.165451	1813.480469	212.830261	-201.644608	1941.150269	180.691727	-258.675629	1797.496704	48.455856	-273.931519	1935.434326	41.329277	-312.347900	2066.069580	379.215149	-510.612946	1969.459717	66.575302	-475.324371	1924.415161	348.187622	-252.019897	1847.145508	43.704071	-253.206802	1977.235352	65.756821	-442.342163	2080.814453	371.298004	-461.924438	1840.744629	50.657722	-288.850372	1927.088135	348.785645	-305.778046	1950.541803	636.417256	-280.971261	1947.263214	643.946668	-429.491982	
